<svg width="123" height="30" viewBox="0 0 123 30" fill="none" xmlns="http://www.w3.org/2000/svg">
<path d="M25.4014 0C27.8687 7.29281e-05 29.8691 2.0091 29.8691 4.4873V11.8848C29.8691 14.363 27.8687 16.372 25.4014 16.3721H4.46777C3.50962 16.3721 2.73242 17.1529 2.73242 18.1152V25.5127C2.73242 26.475 3.50962 27.2549 4.46777 27.2549H11.833C12.7912 27.2549 13.5684 26.475 13.5684 25.5127V18.75H16.3008V25.5127C16.3008 27.9909 14.3004 30 11.833 30H4.46777C2.00035 30 0 27.9909 0 25.5127V18.1152C5.80008e-07 15.637 2.00036 13.6279 4.46777 13.6279H25.4014C26.3595 13.6279 27.1357 12.8471 27.1357 11.8848V4.4873C27.1357 3.52499 26.3595 2.74519 25.4014 2.74512H18.0312L17.9492 2.74707C17.0312 2.79234 16.3008 3.55411 16.3008 4.4873V11.25H13.5684V4.4873C13.5684 2.00906 15.5687 0 18.0361 0H25.4014ZM44.6621 15.7773C44.6621 16.7133 44.8775 17.5488 45.3076 18.2832C45.7377 19.0032 46.3258 19.5717 47.0713 19.9893C47.8168 20.4068 48.6408 20.6162 49.5439 20.6162C50.5189 20.6162 51.3795 20.4069 52.125 19.9893C52.8847 19.5717 53.4801 19.0031 53.9102 18.2832C54.3402 17.5489 54.5547 16.7132 54.5547 15.7773V7.95898H57.2646V15.8643C57.2646 17.2754 56.942 18.5358 56.2969 19.6445C55.6517 20.7532 54.7553 21.6314 53.6084 22.2793C52.4615 22.9128 51.1066 23.2295 49.5439 23.2295C48.0099 23.2295 46.6622 22.9129 45.501 22.2793C44.3541 21.6313 43.4576 20.7532 42.8125 19.6445C42.1674 18.5358 41.8447 17.2754 41.8447 15.8643V7.95898H44.6621V15.7773ZM73.4746 7.98047C74.478 7.98053 75.3666 8.18187 76.1406 8.58496C76.9148 8.98813 77.5243 9.5496 77.9688 10.2695C78.4275 10.975 78.6572 11.7814 78.6572 12.6885C78.6572 13.6244 78.406 14.4671 77.9043 15.2158C77.4168 15.9646 76.7573 16.5624 75.9258 17.0088C75.6882 17.1344 75.4428 17.242 75.1895 17.3311L79.5391 23.1221L76.1406 23.0996L72.0596 17.6572H67.4307V23.0996H64.7002V12.5996H67.4307V15.2158H72.915C73.4166 15.2158 73.8825 15.1084 74.3125 14.8926C74.7424 14.6623 75.0867 14.3667 75.3447 14.0068C75.6028 13.6325 75.7324 13.2146 75.7324 12.7539C75.7324 12.322 75.6027 11.9405 75.3447 11.6094C75.0867 11.2782 74.7426 11.0112 74.3125 10.8096C73.8825 10.6081 73.4095 10.5068 72.8936 10.5068L64.7002 10.5078V7.98047H73.4746ZM94.8223 7.98047C96.1126 7.98047 97.1886 8.13119 98.0488 8.43359C98.9232 8.72159 99.5829 9.14647 100.027 9.70801C100.472 10.2695 100.693 10.9536 100.693 11.7598C100.693 12.5661 100.429 13.2651 99.8984 13.8555C99.5219 14.2757 99.0109 14.6076 98.3672 14.8516C98.7783 14.9856 99.174 15.1575 99.5537 15.3672C100.127 15.684 100.594 16.1088 100.952 16.6416C101.311 17.1744 101.489 17.8299 101.489 18.6074C101.489 19.5 101.303 20.2417 100.931 20.832C100.572 21.408 100.091 21.8622 99.4893 22.1934C98.8872 22.5245 98.2275 22.7613 97.5107 22.9053C96.7939 23.0349 96.0843 23.0996 95.3818 23.0996H86.4785V12.5996H89.21V14.0498H95.124C95.6256 14.0498 96.0844 13.9779 96.5 13.834C96.9158 13.69 97.2455 13.4806 97.4893 13.207C97.7329 12.9335 97.8545 12.6097 97.8545 12.2354C97.8545 11.6163 97.5683 11.1772 96.9951 10.918C96.436 10.6444 95.7398 10.5068 94.9082 10.5068L86.4785 10.5078V7.98047H94.8223ZM123 23.0996H119.279L114.168 17.2646L109.301 23.0996H105.731L112.473 15.3535L105.839 7.98047H109.537L123 23.0996ZM89.21 20.5732H95.4678C96.0986 20.5732 96.6509 20.5004 97.124 20.3564C97.6113 20.2124 97.9913 19.9898 98.2637 19.6875C98.5361 19.3707 98.6719 18.9813 98.6719 18.5205C98.6718 17.9881 98.5001 17.578 98.1562 17.29C97.8122 17.002 97.3814 16.7998 96.8652 16.6846C96.3493 16.5551 95.8476 16.4902 95.3604 16.4902H89.21V20.5732ZM118.015 13.5H114.742L119.172 7.98047H122.764L118.015 13.5Z" fill="#F3F4F9"/>
</svg>
