<svg width="37" height="40" viewBox="0 0 37 40" fill="none" xmlns="http://www.w3.org/2000/svg">
<path d="M21.93 0.193886C15.8892 0.643686 10.7382 3.64059 8.62193 7.92989C8.22893 8.73009 8.05382 9.19879 7.84552 10.0131C7.62292 10.8842 7.52832 11.5991 7.52832 12.4039C7.52832 15.3819 9.14742 17.5739 12.6272 19.2925C14.1706 20.0595 15.5294 20.5519 19.0187 21.6171C22.214 22.5924 23.403 23.0137 24.605 23.6008C25.457 24.0174 26.045 24.4151 26.523 24.898C27.223 25.6082 27.465 26.1574 27.503 27.1043C27.607 29.7035 25.661 32.1559 22.418 33.5004C21.206 34.007 19.8945 34.3384 18.3795 34.5231C17.712 34.6036 15.4347 34.6036 14.7814 34.5231C11.7135 34.1349 9.18532 33.1122 6.87492 31.3226C6.60502 31.1096 5.93752 30.5036 5.39302 29.9686L4.40833 29.0028L2.97852 30.4657C2.19262 31.2753 1.40192 32.0896 1.22202 32.279L0.890625 32.6198L1.50613 33.2448C2.43883 34.1917 3.00692 34.7125 3.61762 35.1859C6.42512 37.359 9.81973 38.713 13.6451 39.1865C14.5115 39.2906 17.2811 39.3048 18.1665 39.2101C24.056 38.5568 28.904 35.7114 31.153 31.5783C32.19 29.6703 32.668 27.1421 32.351 25.2721C31.915 22.7581 30.263 20.8454 27.185 19.3114C25.794 18.6202 24.037 17.9858 21.22 17.162C18.0812 16.2388 16.5284 15.6802 15.1696 14.9842C13.7445 14.2598 12.8497 13.4029 12.5657 12.4986C12.4426 12.0962 12.4568 11.083 12.5988 10.5575C12.7314 10.0604 13.077 9.32189 13.4131 8.82469C13.9008 8.10039 14.8476 7.22918 15.7519 6.67528C16.2727 6.35338 17.3569 5.84678 17.9771 5.63378C20.0176 4.93308 22.489 4.67739 24.629 4.95199C26.466 5.18399 28.019 5.66219 29.69 6.50959C30.85 7.09669 31.536 7.56539 32.89 8.70639C33.231 8.99039 33.52 9.21299 33.539 9.20349C33.558 9.18929 34.259 8.39859 35.097 7.44229C35.935 6.48589 36.683 5.63848 36.758 5.55798L36.896 5.41119L36.148 4.79579C34.675 3.58849 33.809 3.01089 32.441 2.32439C29.164 0.676786 25.476 -0.0712145 21.93 0.193886Z" fill="black"/>
</svg>
