<svg width="135" height="81" viewBox="0 0 135 81" fill="none" xmlns="http://www.w3.org/2000/svg">
<g clip-path="url(#clip0_3598_13887)">
<path d="M92.3363 0.0307156C83.4071 0.568532 75.1546 3.88897 68.3684 9.67868C67.6259 10.3147 66.0186 11.8205 66.0186 11.8814C66.0186 11.9094 66.4274 12.3397 66.9303 12.8401L67.8421 13.7474L68.5658 13.0692C70.6946 11.0536 72.786 9.4542 75.1592 8.01845C85.7756 1.60208 99.0144 0.849133 110.331 6.0262C111.623 6.61546 113.414 7.56482 114.345 8.15408C114.613 8.32711 114.711 8.29438 113.305 8.50016C112.733 8.58901 112.267 8.67319 112.272 8.6919C112.295 8.76204 115.242 10.8805 115.313 10.8805C115.411 10.8805 119.603 10.2352 119.618 10.2164C119.622 10.2072 119.477 9.22504 119.293 8.03716C119.049 6.4658 118.936 5.85784 118.889 5.82978C118.851 5.80639 118.174 5.31535 117.385 4.74012C116.347 3.97315 115.947 3.71125 115.938 3.76737C115.933 3.80946 116.008 4.38001 116.112 5.03475C116.215 5.68948 116.294 6.2273 116.29 6.23197C116.285 6.23665 115.994 6.06829 115.646 5.85784C110.265 2.5795 104.32 0.648035 97.8818 0.0961896C96.862 0.0120095 93.3937 -0.0300811 92.3363 0.0307156Z" fill="black"/>
<path d="M38.5555 16.547C37.2913 22.4722 36.2527 27.322 36.248 27.3266C36.248 27.3313 36.0928 27.1115 35.9096 26.8356C33.9029 23.8425 30.6836 21.7895 26.8065 21.0318C25.4201 20.7606 25.0253 20.7232 23.2066 20.7279C21.369 20.7279 20.7299 20.784 19.2354 21.0786C13.8028 22.1543 8.83055 25.2876 5.18367 29.9362C4.63852 30.6283 3.6516 32.1015 3.20984 32.8779C1.55559 35.8008 0.493478 39.0276 0.103412 42.3528C0.00472021 43.2133 -0.0328765 45.2008 0.0329177 46.024C0.35249 49.8775 1.77177 53.1044 4.22025 55.541C7.55226 58.8567 12.4962 60.3112 18.0371 59.605C22.4311 59.0485 26.7313 57.0515 30.1103 53.9976C30.3969 53.7358 30.632 53.5534 30.632 53.5815C30.632 53.6142 30.3782 54.8254 30.068 56.2752C29.7579 57.7296 29.5041 58.9269 29.5041 58.9363C29.5041 58.9455 30.5755 58.9549 31.8915 58.9549H34.2741L39.9324 32.4476C43.0482 17.8704 45.6049 5.90752 45.6142 5.86075C45.6331 5.78592 45.4968 5.78125 43.2457 5.78125H40.8536L38.5555 16.547ZM24.1935 25.3999C26.3647 25.6291 28.2398 26.3352 29.8236 27.5137C30.2842 27.8598 31.1724 28.7109 31.539 29.1646C33.7431 31.8818 34.495 35.6464 33.6538 39.7806C32.8878 43.5687 31.0361 46.9686 28.2164 49.7653C26.6185 51.3507 24.9784 52.5105 22.9575 53.4833C20.4197 54.7085 17.8584 55.2417 15.1562 55.1154C12.703 54.9985 10.7151 54.3531 8.94804 53.1044C8.45458 52.7537 7.61806 51.968 7.21859 51.4863C6.33506 50.4107 5.62074 48.9843 5.25887 47.5766C4.72781 45.5282 4.70431 43.2413 5.18367 40.7533C6.52305 33.8599 11.2931 28.2619 17.6376 26.1481C18.8313 25.7507 20.2224 25.4794 21.6323 25.3624C22.1633 25.3157 23.6296 25.339 24.1935 25.3999Z" fill="black"/>
<path d="M121.999 12.4029L121.049 13.3242L121.655 13.9416C127.29 19.722 130.843 26.91 131.971 34.8229C132.38 37.671 132.445 40.8511 132.163 43.7787C131.778 47.7164 130.759 51.5653 129.109 55.2833C128.549 56.5507 127.426 58.6598 126.796 59.6559L126.608 59.946L126.533 59.4362C126.303 57.9396 126.251 57.645 126.223 57.645C126.199 57.6497 125.467 58.6271 124.254 60.292L124.001 60.6334L124.334 62.7987C124.522 63.9866 124.677 64.964 124.682 64.9687C124.687 64.9734 125.668 64.8237 126.867 64.6413L129.043 64.3093L130.142 62.8128C130.754 61.9896 131.228 61.3115 131.204 61.3022C131.167 61.2881 129.334 61.5547 128.813 61.6483L128.662 61.6763L129.104 60.9561C134.189 52.655 136.059 42.9322 134.42 33.303C133.061 25.3152 129.334 18.0477 123.554 12.1036L122.952 11.4863L121.999 12.4029Z" fill="black"/>
<path d="M65.4062 20.7241C62.5535 20.9813 59.917 21.7296 57.2759 23.0391C53.4363 24.9425 50.1513 27.7485 47.5995 31.3027C45.3577 34.4315 43.9196 38.0231 43.4074 41.7879C43.2805 42.7232 43.2335 44.7669 43.3134 45.7303C43.586 48.9057 44.7186 51.8099 46.6172 54.195C47.1153 54.817 48.2856 55.9815 48.9106 56.4726C51.8902 58.8203 55.8096 59.9847 59.9593 59.7509C63.1174 59.5778 65.7727 58.8764 68.5925 57.4781C71.1913 56.1919 73.2827 54.6767 76.0601 52.0858L76.7744 51.4171L75.3552 49.7615C74.575 48.8543 73.9171 48.1061 73.8984 48.1061C73.8795 48.1013 73.466 48.4615 72.9819 48.901C71.431 50.3134 70.2561 51.258 69.0013 52.0812C65.6411 54.2979 62.3467 55.2754 58.8033 55.1117C54.5877 54.9152 51.1429 52.7499 49.3618 49.1723C48.7885 48.0265 48.4595 46.9602 48.248 45.5759C48.1634 45.0194 48.1445 44.6874 48.1399 43.752C48.1399 42.5922 48.1775 42.1386 48.3514 41.0957C49.1973 36.0356 52.346 31.2747 56.7824 28.3331C59.3813 26.6074 62.1399 25.6207 65.0537 25.3681C66.3461 25.2605 68.2588 25.3775 69.3961 25.6347C71.5908 26.1397 73.3907 27.1685 75.0497 28.8709C75.6748 29.5116 76.1447 30.0915 76.9202 31.1672C77.2163 31.5787 77.4794 31.9154 77.4982 31.9201C77.5217 31.9201 78.4146 31.242 79.4862 30.4142C80.7503 29.4367 81.4177 28.8942 81.3895 28.8615C81.3707 28.8335 81.0793 28.4406 80.7503 27.9917C80.4167 27.5427 79.9326 26.9113 79.6741 26.5887C79.0773 25.8497 77.7097 24.4842 77.0424 23.9557C74.8241 22.2066 72.2957 21.1825 69.2598 20.8084C68.6536 20.7335 65.9608 20.6774 65.4062 20.7241Z" fill="black"/>
<path d="M100.189 20.9364C94.1925 21.3807 89.0794 24.3411 86.9787 28.5781C86.5885 29.3685 86.4147 29.8315 86.208 30.6359C85.987 31.4963 85.8931 32.2025 85.8931 32.9975C85.8931 35.9392 87.5003 38.1045 90.9545 39.8021C92.4865 40.5598 93.8354 41.0461 97.299 42.0984C100.471 43.0618 101.651 43.4779 102.844 44.0579C103.69 44.4694 104.274 44.8622 104.748 45.3392C105.443 46.0408 105.683 46.5833 105.721 47.5186C105.824 50.0861 103.892 52.5086 100.673 53.8367C99.4702 54.3372 98.1684 54.6645 96.6645 54.847C96.0019 54.9265 93.7414 54.9265 93.0929 54.847C90.0475 54.4635 87.5379 53.4533 85.2445 51.6855C84.9766 51.4751 84.314 50.8765 83.7735 50.348L82.796 49.394L81.3767 50.839C80.5966 51.6388 79.8117 52.4431 79.6332 52.6302L79.3042 52.9669L79.9152 53.5843C80.841 54.5196 81.4049 55.0341 82.0111 55.5017C84.798 57.6483 88.1676 58.9858 91.9649 59.4535C92.8249 59.5563 95.5742 59.5704 96.4531 59.4768C102.299 58.8315 107.112 56.0208 109.344 51.9381C110.373 50.0533 110.848 47.556 110.533 45.7088C110.1 43.2254 108.461 41.3361 105.405 39.8208C104.024 39.138 102.28 38.5113 99.4841 37.6976C96.3684 36.7856 94.827 36.2339 93.4782 35.5463C92.0636 34.8308 91.1754 33.9843 90.8934 33.0911C90.7713 32.6936 90.7854 31.6927 90.9263 31.1736C91.0579 30.6826 91.401 29.9531 91.7346 29.462C92.2187 28.7465 93.1586 27.8859 94.0562 27.3388C94.5732 27.0208 95.6494 26.5204 96.2651 26.31C98.2906 25.6178 100.744 25.3652 102.868 25.6365C104.692 25.8657 106.233 26.338 107.892 27.1751C109.043 27.755 109.724 28.218 111.068 29.3451C111.407 29.6256 111.694 29.8455 111.713 29.8361C111.731 29.8221 112.427 29.0411 113.259 28.0964C114.091 27.1517 114.833 26.3146 114.908 26.2351L115.045 26.0901L114.302 25.4822C112.84 24.2896 111.981 23.7191 110.623 23.0409C107.37 21.4134 103.709 20.6745 100.189 20.9364Z" fill="black"/>
<path d="M120.982 66.9403C116.108 71.7058 109.9 75.1011 103.27 76.6257C96.6711 78.1455 89.7439 77.879 83.3713 75.8634C79.8794 74.755 76.7072 73.2258 73.643 71.1773C72.6984 70.5459 71.5517 69.7042 71.5847 69.6714C71.5988 69.6621 72.1204 69.62 72.7455 69.5873C73.3752 69.5498 73.8922 69.5124 73.9015 69.5031C73.9156 69.4937 72.0499 67.8149 71.2791 67.146L71.1147 67.0011L68.9293 67.1227C67.731 67.1881 66.7394 67.2489 66.7347 67.2583C66.7018 67.2816 66.9602 71.645 66.9979 71.6778C67.0166 71.6918 67.6417 72.2483 68.3842 72.9123C69.1315 73.5718 69.7519 74.1049 69.7612 74.0909C69.7847 74.0675 69.7189 72.6925 69.6579 71.8929L69.6297 71.5281L70.0902 71.8882C71.1147 72.6833 72.6891 73.7495 73.9156 74.4884C79.2544 77.6779 85.096 79.5579 91.4216 80.1191C92.573 80.2173 95.5855 80.2594 96.8355 80.1893C100.595 79.9741 103.969 79.3381 107.47 78.1737C113.374 76.2141 118.463 73.0948 123.064 68.6145L123.543 68.1422L122.617 67.2209C122.105 66.7111 121.677 66.2949 121.663 66.2949C121.649 66.2949 121.344 66.5848 120.982 66.9403Z" fill="black"/>
</g>
<defs>
<clipPath id="clip0_3598_13887">
<rect width="135" height="81" fill="white"/>
</clipPath>
</defs>
</svg>
