<svg width="136" height="82" viewBox="0 0 136 82" fill="none" xmlns="http://www.w3.org/2000/svg">
<path d="M93.0205 0.0300169C84.0251 0.574473 75.7115 3.9359 68.875 9.79709C68.127 10.441 66.5078 11.9654 66.5078 12.027C66.5078 12.0554 66.9197 12.491 67.4263 12.9975L68.3448 13.916L69.0739 13.2295C71.2185 11.189 73.3254 9.56984 75.7162 8.11637C86.4112 1.62078 99.7481 0.858538 111.148 6.09952C112.45 6.69605 114.254 7.65714 115.192 8.25367C115.462 8.42884 115.561 8.3957 114.145 8.60402C113.568 8.69397 113.099 8.77919 113.104 8.79813C113.127 8.86914 116.096 11.0138 116.167 11.0138C116.266 11.0138 120.489 10.3605 120.504 10.3415C120.508 10.3321 120.362 9.33785 120.177 8.13531C119.931 6.54455 119.817 5.92908 119.77 5.90067C119.732 5.877 119.05 5.37989 118.255 4.79756C117.209 4.02112 116.806 3.75599 116.797 3.8128C116.792 3.85541 116.868 4.43301 116.972 5.09583C117.076 5.75864 117.156 6.3031 117.152 6.30783C117.147 6.31257 116.853 6.14213 116.503 5.92908C111.082 2.61027 105.093 0.654958 98.6071 0.0962992C97.5797 0.0110798 94.0857 -0.0315304 93.0205 0.0300169Z" fill="#FFCD00"/>
<path d="M38.8411 16.7514C37.5675 22.7498 36.5212 27.6594 36.5165 27.6641C36.5165 27.6689 36.3602 27.4464 36.1756 27.167C34.154 24.137 30.9109 22.0586 27.0051 21.2916C25.6084 21.017 25.2107 20.9792 23.3785 20.9839C21.5273 20.9839 20.8835 21.0407 19.3779 21.339C13.905 22.4279 8.89596 25.5999 5.22207 30.3059C4.67288 31.0066 3.67865 32.498 3.23362 33.2839C1.56711 36.2429 0.497133 39.5096 0.104178 42.8758C0.0047552 43.7469 -0.03312 45.759 0.0331616 46.5923C0.355101 50.4934 1.78489 53.7602 4.25151 56.2268C7.6082 59.5835 12.5888 61.0559 18.1707 60.341C22.5973 59.7776 26.9293 57.756 30.3333 54.6644C30.6221 54.3993 30.8589 54.2147 30.8589 54.2431C30.8589 54.2762 30.6032 55.5024 30.2907 56.9701C29.9783 58.4425 29.7226 59.6545 29.7226 59.664C29.7226 59.6734 30.802 59.6829 32.1277 59.6829H34.528L40.2282 32.8483C43.3671 18.0912 45.9427 5.98059 45.9521 5.93324C45.9711 5.85749 45.8338 5.85276 43.566 5.85276H41.1562L38.8411 16.7514ZM24.3727 25.7136C26.56 25.9456 28.449 26.6605 30.0445 27.8535C30.5085 28.2039 31.4033 29.0655 31.7726 29.5248C33.993 32.2755 34.7505 36.0866 33.9031 40.2719C33.1314 44.1067 31.266 47.5486 28.4254 50.3798C26.8157 51.9848 25.1634 53.1589 23.1276 54.1437C20.571 55.3841 17.9907 55.9238 15.2685 55.796C12.7971 55.6776 10.7945 55.0243 9.01432 53.7602C8.51721 53.4051 7.67449 52.6097 7.27206 52.1221C6.38199 51.0332 5.66237 49.5892 5.29782 48.1641C4.76283 46.0904 4.73916 43.7753 5.22207 41.2566C6.57137 34.2781 11.3768 28.611 17.7682 26.4711C18.9708 26.0687 20.3722 25.7941 21.7925 25.6757C22.3275 25.6284 23.8046 25.652 24.3727 25.7136Z" fill="white"/>
<path d="M122.902 12.5547L121.945 13.4874L122.556 14.1124C128.233 19.9641 131.812 27.2409 132.948 35.2515C133.36 38.1347 133.426 41.3541 133.142 44.3178C132.754 48.3042 131.727 52.2006 130.065 55.9645C129.501 57.2475 128.37 59.3827 127.735 60.3911L127.546 60.6847L127.47 60.1686C127.238 58.6536 127.186 58.3553 127.158 58.3553C127.134 58.3601 126.396 59.3496 125.174 61.035L124.919 61.3806L125.255 63.5727C125.444 64.7752 125.6 65.7647 125.605 65.7694C125.61 65.7742 126.599 65.6227 127.807 65.438L129.999 65.1019L131.106 63.5869C131.722 62.7536 132.2 62.0671 132.176 62.0577C132.138 62.0434 130.292 62.3133 129.767 62.408L129.615 62.4364L130.06 61.7073C135.183 53.3037 137.067 43.4609 135.415 33.7128C134.046 25.6264 130.292 18.2692 124.469 12.2517L123.863 11.6268L122.902 12.5547Z" fill="#FFCD00"/>
<path d="M65.8898 20.9811C63.016 21.2415 60.36 21.999 57.6993 23.3247C53.8313 25.2516 50.5219 28.0922 47.9512 31.6903C45.6928 34.8577 44.2441 38.4937 43.7281 42.3049C43.6002 43.2518 43.5529 45.3207 43.6334 46.296C43.908 49.5106 45.049 52.4507 46.9617 54.8652C47.4635 55.4949 48.6424 56.6738 49.2721 57.1709C52.2737 59.5476 56.2222 60.7264 60.4026 60.4897C63.5841 60.3145 66.2591 59.6044 69.0997 58.1888C71.7178 56.8868 73.8247 55.3529 76.6227 52.73L77.3423 52.053L75.9125 50.377C75.1266 49.4586 74.4638 48.7011 74.4449 48.7011C74.4259 48.6963 74.0093 49.0609 73.5217 49.5059C71.9593 50.9357 70.7757 51.892 69.5116 52.7253C66.1265 54.9694 62.8077 55.9589 59.238 55.7932C54.9912 55.5943 51.5209 53.4023 49.7266 49.7805C49.149 48.6206 48.8176 47.5411 48.6045 46.1397C48.5193 45.5763 48.5003 45.2402 48.4956 44.2933C48.4956 43.1192 48.5335 42.66 48.7087 41.6042C49.5609 36.4816 52.7329 31.6619 57.2022 28.684C59.8203 26.937 62.5994 25.9381 65.5347 25.6824C66.8367 25.5735 68.7636 25.6919 69.9093 25.9523C72.1203 26.4636 73.9335 27.5051 75.6048 29.2285C76.2345 29.8771 76.7079 30.4641 77.4891 31.5531C77.7874 31.9697 78.0525 32.3106 78.0714 32.3153C78.0951 32.3153 78.9946 31.6288 80.0741 30.7908C81.3476 29.8013 82.0199 29.2521 81.9915 29.219C81.9726 29.1906 81.679 28.7929 81.3476 28.3384C81.0115 27.8839 80.5238 27.2447 80.2634 26.9181C79.6622 26.17 78.2845 24.7876 77.6122 24.2526C75.3775 22.4819 72.8304 21.4451 69.772 21.0664C69.1613 20.9906 66.4485 20.9338 65.8898 20.9811Z" fill="white"/>
<path d="M100.93 21.1938C94.8892 21.6436 89.7382 24.6405 87.6219 28.9298C87.2289 29.73 87.0538 30.1987 86.8455 31.013C86.6229 31.8841 86.5283 32.599 86.5283 33.4038C86.5283 36.3818 88.1474 38.5738 91.6272 40.2924C93.1706 41.0594 94.5294 41.5518 98.0187 42.617C101.214 43.5923 102.403 44.0136 103.605 44.6007C104.457 45.0173 105.045 45.415 105.523 45.8979C106.223 46.6081 106.465 47.1573 106.503 48.1042C106.607 50.7034 104.661 53.1558 101.418 54.5003C100.206 55.0069 98.8945 55.3383 97.3795 55.523C96.712 55.6035 94.4347 55.6035 93.7814 55.523C90.7135 55.1348 88.1853 54.1121 85.8749 52.3225C85.605 52.1095 84.9375 51.5035 84.393 50.9685L83.4083 50.0027L81.9785 51.4656C81.1926 52.2752 80.4019 53.0895 80.222 53.2789L79.8906 53.6197L80.5061 54.2447C81.4388 55.1916 82.0069 55.7124 82.6176 56.1858C85.4251 58.3589 88.8197 59.7129 92.6451 60.1864C93.5115 60.2905 96.2811 60.3047 97.1665 60.21C103.056 59.5567 107.904 56.7113 110.153 52.5782C111.19 50.6702 111.668 48.142 111.351 46.272C110.915 43.758 109.263 41.8453 106.185 40.3113C104.794 39.6201 103.037 38.9857 100.22 38.1619C97.0812 37.2387 95.5284 36.6801 94.1696 35.9841C92.7445 35.2597 91.8497 34.4028 91.5657 33.4985C91.4426 33.0961 91.4568 32.0829 91.5988 31.5574C91.7314 31.0603 92.077 30.3218 92.4131 29.8246C92.9008 29.1003 93.8476 28.2291 94.7519 27.6752C95.2727 27.3533 96.3569 26.8467 96.9771 26.6337C99.0176 25.933 101.489 25.6773 103.629 25.9519C105.466 26.1839 107.019 26.6621 108.69 27.5095C109.85 28.0966 110.536 28.5653 111.89 29.7063C112.231 29.9903 112.52 30.2129 112.539 30.2034C112.558 30.1892 113.259 29.3985 114.097 28.4422C114.935 27.4858 115.683 26.6384 115.758 26.5579L115.896 26.4111L115.148 25.7957C113.675 24.5884 112.809 24.0108 111.441 23.3243C108.164 21.6767 104.476 20.9287 100.93 21.1938Z" fill="white"/>
<path d="M121.879 67.767C116.969 72.5914 110.715 76.0286 104.035 77.572C97.3876 79.1106 90.4091 78.8408 83.9893 76.8003C80.4716 75.6782 77.2759 74.1301 74.189 72.0564C73.2374 71.4172 72.0822 70.5651 72.1154 70.5319C72.1296 70.5224 72.6551 70.4798 73.2848 70.4467C73.9192 70.4088 74.44 70.3709 74.4494 70.3615C74.4636 70.352 72.5841 68.6524 71.8076 67.9753L71.6419 67.8286L69.4404 67.9517C68.2332 68.0179 67.2342 68.0795 67.2295 68.089C67.1963 68.1126 67.4567 72.5298 67.4946 72.563C67.5135 72.5772 68.1432 73.1406 68.8912 73.8128C69.644 74.4804 70.269 75.0201 70.2784 75.0059C70.3021 74.9822 70.2358 73.5903 70.1743 72.7808L70.1459 72.4115L70.6098 72.776C71.6419 73.5809 73.228 74.6603 74.4636 75.4083C79.8419 78.6372 85.7268 80.5404 92.0993 81.1086C93.2592 81.208 96.294 81.2506 97.5533 81.1796C101.341 80.9618 104.74 80.3179 108.267 79.1391C114.214 77.1553 119.341 73.9975 123.976 69.4619L124.459 68.9838L123.526 68.0511C123.01 67.535 122.579 67.1137 122.565 67.1137C122.551 67.1137 122.243 67.4072 121.879 67.767Z" fill="#FFCD00"/>
</svg>
